<svg width="805" height="763" viewBox="0 0 805 763" fill="none" xmlns="http://www.w3.org/2000/svg">
<path opacity="0.1" d="M558.98 762.695C840.104 762.695 1068 559.277 1068 308.348C1068 57.4184 840.104 -146 558.98 -146C277.856 -146 49.9594 57.4184 49.9594 308.348C49.9594 559.277 277.856 762.695 558.98 762.695Z" fill="#00B0FF"/>
<path opacity="0.1" d="M162.132 591.976C251.676 591.976 324.265 580.725 324.265 566.845C324.265 552.966 251.676 541.715 162.132 541.715C72.5891 541.715 0 552.966 0 566.845C0 580.725 72.5891 591.976 162.132 591.976Z" fill="#00B0FF"/>
<path opacity="0.1" d="M240.06 711.699C274.888 711.699 303.122 705.867 303.122 698.672C303.122 691.477 274.888 685.645 240.06 685.645C205.231 685.645 176.998 691.477 176.998 698.672C176.998 705.867 205.231 711.699 240.06 711.699Z" fill="#00B0FF"/>
<path opacity="0.1" d="M670.964 661.58C705.792 661.58 734.026 655.747 734.026 648.553C734.026 641.358 705.792 635.525 670.964 635.525C636.136 635.525 607.902 641.358 607.902 648.553C607.902 655.747 636.136 661.58 670.964 661.58Z" fill="#00B0FF"/>
<path opacity="0.1" d="M456.978 650.645C513.614 650.645 559.526 642.867 559.526 633.272C559.526 623.678 513.614 615.9 456.978 615.9C400.342 615.9 354.429 623.678 354.429 633.272C354.429 642.867 400.342 650.645 456.978 650.645Z" fill="#00B0FF"/>
<path opacity="0.1" d="M759.138 580.777C877.267 580.777 973.03 565.778 973.03 547.276C973.03 528.774 877.267 513.775 759.138 513.775C641.008 513.775 545.245 528.774 545.245 547.276C545.245 565.778 641.008 580.777 759.138 580.777Z" fill="#00B0FF"/>
<path d="M44.332 488.805C39.5273 498.152 37.2833 508.604 37.828 519.1C38.3727 529.595 41.6868 539.759 47.4332 548.558C49.3185 551.386 51.0529 553.422 52.4386 553.959C59.0841 556.57 72.3941 562.99 72.3941 562.99L104.444 550.396C104.444 550.396 109.647 522.871 114.567 499.24C117.923 483.121 121.166 468.821 122.495 466.314C125.813 460.139 122.495 392.92 122.495 392.92C122.495 392.92 90.4455 390.771 81.6319 415.478L77.7765 423.019L44.332 488.805Z" fill="#A8A8A8"/>
<path opacity="0.1" d="M86.8822 496.233C106.366 518.564 114.586 499.249 114.586 499.249C117.942 483.13 121.185 468.831 122.514 466.323C125.832 460.149 122.514 392.93 122.514 392.93C122.514 392.93 90.4642 390.781 81.6506 415.487L77.7953 423.028C75.3256 442.795 72.8842 480.161 86.8822 496.233Z" fill="white"/>
<path d="M91.1617 558.475L204.277 545.41L224.459 412.612L209.198 378.121C202.75 363.433 193.822 349.964 182.804 338.305C175.122 330.208 165.837 322.421 156.071 318.509C154.737 317.972 153.374 317.506 151.99 317.114C150.398 316.631 148.715 316.53 147.077 316.82C145.439 317.11 143.892 317.782 142.563 318.783C128.612 328.671 123.626 370.712 122.014 390.951C121.351 399.267 120.227 407.54 118.649 415.732L91.1617 558.475Z" fill="#A8A8A8"/>
<path opacity="0.1" d="M166.468 411.179L142.903 469.151C155.251 460.121 173.548 410.944 173.548 410.944L189.94 467.011L176.875 407.918C178.788 395.085 179.344 382.087 178.534 369.138C177.497 354.301 163.575 330.49 156.015 318.5C154.68 317.962 153.318 317.496 151.933 317.105C150.341 316.621 148.658 316.52 147.02 316.81C145.382 317.1 143.836 317.773 142.507 318.773C148.445 330.698 163.292 360.513 167.816 369.374C173.557 380.534 166.468 411.179 166.468 411.179Z" fill="white"/>
<path d="M185.708 562.99H247.082C249.607 562.99 252.105 562.478 254.425 561.483C256.746 560.487 258.839 559.031 260.579 557.201C262.318 555.372 263.668 553.207 264.545 550.84C265.422 548.473 265.808 545.952 265.68 543.43C264.323 517.112 260.882 470.188 252.7 440.401C248.279 424.329 243.142 415.892 238.429 411.735C236.219 409.602 233.365 408.26 230.313 407.918C227.997 407.718 225.68 408.28 223.714 409.52C212.318 420.445 199.008 477.936 199.008 477.936L185.708 562.99Z" fill="#A8A8A8"/>
<path opacity="0.1" d="M242.369 512.003C244.895 519.007 245.894 527.085 242.369 534.956L228.691 541.715C228.691 541.715 191.929 526.133 196.397 494.197C196.397 494.197 197.604 487.598 210.263 488.107C217.383 488.451 224.239 490.908 229.957 495.164C235.675 499.42 239.996 505.282 242.369 512.003V512.003Z" fill="white"/>
<path opacity="0.1" d="M227.758 428.052C227.334 416.854 233.414 412.97 238.438 411.735C236.228 409.602 233.375 408.26 230.322 407.918C226.825 410.844 224.347 414.805 223.243 419.229L210.423 481.716C210.423 481.716 228.475 446.82 227.758 428.052Z" fill="white"/>
<path d="M169.56 477.465L199.951 519.035L205.22 553.347L185.689 562.99L157.532 569.211C154.821 569.814 152.032 569.995 149.266 569.749L72.4318 562.99L82.8856 538.755L118.988 488.07L169.56 477.465Z" fill="#A8A8A8"/>
<path opacity="0.1" d="M157.796 463.194C157.796 463.194 178.534 464.617 170.748 500.248C162.962 535.88 82.8479 538.736 82.8479 538.736C82.8479 538.736 99.8718 508.572 126.058 486.957C128.999 484.535 131.836 482.009 134.542 479.313C140.565 473.289 152.084 462.704 157.796 463.194Z" fill="white"/>
<path opacity="0.1" d="M176.451 490.059C176.451 490.059 204.551 515.632 201.902 554.987Z" fill="black"/>
<path opacity="0.1" d="M223.724 409.52C223.724 409.52 194.238 448.734 190.93 509.071Z" fill="black"/>
<path opacity="0.1" d="M122.523 392.902C122.523 392.902 136.795 457.707 101.163 506.555Z" fill="black"/>
<path d="M382.453 632.914H536.234C537.72 632.906 539.18 632.514 540.469 631.775C541.759 631.036 542.836 629.976 543.595 628.698C544.354 627.42 544.77 625.968 544.801 624.481C544.833 622.995 544.479 621.526 543.775 620.217L466.922 477.427C466.186 476.059 465.092 474.915 463.758 474.117C462.423 473.32 460.898 472.899 459.344 472.899C457.789 472.899 456.264 473.32 454.929 474.117C453.595 474.915 452.501 476.059 451.765 477.427L374.874 620.217C374.169 621.529 373.815 623.001 373.848 624.491C373.882 625.98 374.3 627.435 375.064 628.714C375.827 629.994 376.91 631.053 378.205 631.789C379.5 632.525 380.964 632.913 382.453 632.914V632.914ZM469.128 606.822H449.559V587.263H469.128V606.822ZM469.128 574.217H449.559V535.088H469.128V574.217Z" fill="#464353"/>
<path opacity="0.1" d="M382.453 632.914H536.234C537.72 632.906 539.18 632.514 540.469 631.775C541.759 631.036 542.836 629.976 543.595 628.698C544.354 627.42 544.77 625.968 544.801 624.481C544.833 622.995 544.479 621.526 543.775 620.217L466.922 477.427C466.186 476.059 465.092 474.915 463.758 474.117C462.423 473.32 460.898 472.899 459.344 472.899C457.789 472.899 456.264 473.32 454.929 474.117C453.595 474.915 452.501 476.059 451.765 477.427L374.874 620.217C374.169 621.529 373.815 623.001 373.848 624.491C373.882 625.98 374.3 627.435 375.064 628.714C375.827 629.994 376.91 631.053 378.205 631.789C379.5 632.525 380.964 632.913 382.453 632.914V632.914ZM469.128 606.822H449.559V587.263H469.128V606.822ZM469.128 574.217H449.559V535.088H469.128V574.217Z" fill="black"/>
<path d="M382.453 637.627H536.234C537.72 637.619 539.18 637.227 540.469 636.488C541.759 635.749 542.836 634.689 543.595 633.411C544.354 632.133 544.77 630.681 544.801 629.194C544.833 627.708 544.479 626.239 543.775 624.93L466.922 482.141C466.186 480.772 465.092 479.628 463.758 478.831C462.423 478.033 460.898 477.612 459.344 477.612C457.789 477.612 456.264 478.033 454.929 478.831C453.595 479.628 452.501 480.772 451.765 482.141L374.874 624.93C374.169 626.242 373.815 627.715 373.848 629.204C373.882 630.693 374.3 632.148 375.064 633.428C375.827 634.707 376.91 635.766 378.205 636.502C379.5 637.238 380.964 637.626 382.453 637.627V637.627ZM469.128 611.535H449.559V591.976H469.128V611.535ZM469.128 578.93H449.559V539.801H469.128V578.93Z" fill="#464353"/>
<g opacity="0.1">
<path opacity="0.1" d="M274.579 228.073C274.579 228.356 274.579 228.639 274.636 228.912C274.928 226.15 276.38 223.558 276.898 220.796C277.098 219.69 277.158 218.562 277.077 217.44C277.077 217.931 276.983 218.383 276.898 218.911C276.304 222.022 274.541 224.906 274.579 228.073Z" fill="black"/>
<path opacity="0.1" d="M222.48 206.233C222.591 204.325 222.377 202.413 221.848 200.577C221.29 199.146 220.834 197.678 220.481 196.184C220.481 196.382 220.406 196.571 220.397 196.769C220.293 198.739 221.273 200.539 221.848 202.424C222.212 203.663 222.425 204.942 222.48 206.233V206.233Z" fill="black"/>
<path opacity="0.1" d="M278.321 241.798C278.255 242.64 277.992 243.456 277.553 244.178C277.115 244.9 276.512 245.509 275.795 245.955C273.91 246.983 271.638 246.492 269.574 245.955C265.934 245.096 262.379 243.913 258.95 242.42C253.747 240.016 248.883 236.255 243.161 235.944C241.608 235.806 240.046 236.097 238.646 236.783C237.953 237.134 237.355 237.646 236.901 238.276C236.446 238.906 236.149 239.635 236.035 240.403C235.969 240.997 236.035 241.61 235.922 242.194C235.554 243.91 233.537 244.843 231.793 244.635C230.06 244.285 228.441 243.511 227.08 242.382L218.7 236.5C218.389 236.925 218.078 237.339 217.757 237.726L227.08 244.268C228.441 245.396 230.06 246.17 231.793 246.521C233.537 246.728 235.563 245.795 235.922 244.079C236.044 243.495 235.922 242.882 236.035 242.288C236.149 241.52 236.446 240.791 236.901 240.161C237.355 239.531 237.953 239.02 238.646 238.669C240.046 237.982 241.608 237.692 243.161 237.83C248.883 238.141 253.747 241.902 258.95 244.305C262.379 245.798 265.934 246.981 269.574 247.84C271.638 248.378 273.928 248.868 275.795 247.84C277.661 246.813 278.519 244.428 278.378 242.269C278.368 242.109 278.34 241.958 278.321 241.798Z" fill="black"/>
<path opacity="0.1" d="M221.16 227.451C221.276 227.83 221.361 228.218 221.414 228.611C221.561 227.589 221.474 226.549 221.16 225.566C220.877 224.699 220.406 223.907 220.095 223.04C219.868 222.41 219.722 221.755 219.661 221.088C219.522 222.384 219.67 223.693 220.095 224.925C220.406 225.792 220.877 226.593 221.16 227.451Z" fill="black"/>
</g>
<path d="M232.226 585.132C232.162 585.401 232.009 585.64 231.793 585.811C231.563 585.93 231.306 585.985 231.048 585.971C227.692 586.047 224.337 585.971 220.99 586.207C217.823 586.48 214.646 587.149 211.489 586.791C210.478 586.827 209.482 586.548 208.638 585.992C207.793 585.436 207.142 584.632 206.775 583.69C206.576 583.279 206.4 582.857 206.248 582.427C205.378 580.205 204.939 577.838 204.956 575.451C204.956 574.82 204.956 574.207 204.956 573.566C204.915 572.875 204.824 572.189 204.683 571.511C204.397 570.735 204.431 569.877 204.777 569.126C206.116 566.685 209.349 566.195 211.837 566.006C217.603 565.572 223.4 565.998 229.04 567.269C229.483 569.437 229.983 571.587 230.511 573.736C230.901 575.313 231.315 576.884 231.755 578.449C232.05 579.418 232.29 580.403 232.472 581.399C232.705 582.645 232.62 583.928 232.226 585.132Z" fill="#464353"/>
<path opacity="0.06" d="M232.226 585.132C232.162 585.401 232.009 585.64 231.793 585.811C231.563 585.93 231.306 585.985 231.048 585.971C227.692 586.047 224.337 585.971 220.99 586.207C217.823 586.48 214.646 587.149 211.489 586.791C210.478 586.827 209.482 586.548 208.638 585.992C207.793 585.436 207.142 584.632 206.775 583.69C206.576 583.279 206.4 582.857 206.248 582.427H207.454C211.423 582.427 215.4 582.286 219.369 582.286C220.566 582.286 221.773 582.229 222.96 582.088C224.148 581.946 225.119 581.748 226.203 581.616C227.826 581.461 229.456 581.395 231.086 581.418H232.424C232.67 582.653 232.601 583.93 232.226 585.132Z" fill="black"/>
<path d="M301.651 567.628C300.601 568.854 299.259 569.798 297.749 570.371C291.037 573.199 283.279 571.926 276.351 569.626C274.801 569.05 273.21 568.593 271.591 568.259C270.114 568.052 268.624 567.948 267.132 567.948C266.067 567.948 265.002 567.863 263.937 567.797C261.241 567.628 258.554 567.364 255.877 567.1C254.011 566.963 252.158 566.682 250.334 566.261C249.816 566.128 249.318 565.925 248.854 565.658V565.658C248.459 565.484 248.121 565.201 247.881 564.842C247.64 564.483 247.507 564.063 247.497 563.631C247.572 562.434 248.817 561.746 249.91 561.227C259.61 557.032 270.148 555.213 280.612 553.752C281.676 553.574 282.712 553.258 283.694 552.809C284.872 552.338 284.995 553.111 285.579 553.978C285.855 554.38 286.171 554.752 286.522 555.091C287.658 556.117 288.993 556.9 290.443 557.391C292.988 558.333 295.713 558.588 298.258 559.483C299.028 559.75 299.764 560.105 300.454 560.539C301.063 560.871 301.587 561.337 301.988 561.902C302.389 562.468 302.655 563.117 302.766 563.802C302.877 564.486 302.83 565.186 302.628 565.849C302.427 566.512 302.077 567.121 301.604 567.628H301.651Z" fill="#464353"/>
<path opacity="0.06" d="M301.651 567.628C300.601 568.854 299.259 569.798 297.749 570.371C291.037 573.199 283.279 571.926 276.351 569.626C274.801 569.05 273.21 568.593 271.591 568.259C270.113 568.052 268.624 567.948 267.132 567.948C266.067 567.948 265.002 567.863 263.936 567.797C264.804 566.977 265.69 566.176 266.595 565.403C267.251 564.79 268.006 564.292 268.829 563.933C269.853 563.597 270.945 563.522 272.005 563.716C277.397 564.46 282.242 568.24 287.681 567.91C290.215 567.619 292.666 566.827 294.892 565.582C296.703 564.845 298.316 563.696 299.606 562.226C299.995 561.72 300.291 561.149 300.482 560.539C301.091 560.871 301.616 561.337 302.016 561.902C302.417 562.468 302.683 563.117 302.794 563.802C302.905 564.486 302.858 565.186 302.657 565.849C302.455 566.512 302.105 567.121 301.632 567.628H301.651Z" fill="black"/>
<path d="M299.756 403.808C298.814 405.693 297.607 407.739 295.571 408.323C292.611 409.171 289.765 406.513 288.473 403.723C286.713 399.628 286.381 395.059 287.531 390.752C288.068 388.575 288.888 386.482 289.35 384.295C289.683 382.455 289.885 380.593 289.953 378.724C290.232 375.937 290.165 373.125 289.755 370.354C288.238 362.257 281.272 356.214 278.953 348.259C277.784 344.29 277.84 340.067 277.906 335.929C277.884 334.883 277.992 333.838 278.227 332.818C278.297 332.54 278.392 332.269 278.51 332.008C280.065 328.558 284.674 328.086 287.879 326.079C289.651 324.976 293.677 321.422 295.166 324.665C295.487 325.387 295.728 326.142 295.882 326.917C296.495 329.802 296.25 333.186 296.401 335.91C296.976 346.204 299.54 356.478 298.352 366.715C298.069 368.46 297.93 370.226 297.937 371.994C298.192 376.424 300.963 380.261 302.236 384.503C304.196 390.884 302.622 397.832 299.756 403.808Z" fill="#FBBEBE"/>
<path opacity="0.1" d="M295.929 326.936C295.229 326.682 294.462 326.682 293.761 326.936L287.38 328.822C285.143 329.418 282.964 330.21 280.866 331.188C279.95 331.637 279.082 332.177 278.274 332.8C278.344 332.522 278.439 332.25 278.557 331.989C280.112 328.539 284.721 328.068 287.926 326.06C289.699 324.957 293.724 321.403 295.213 324.646C295.537 325.38 295.777 326.148 295.929 326.936V326.936Z" fill="black"/>
<path d="M233.603 215.574C232.66 215.263 231.717 214.933 230.775 214.631L232.735 214.782C233.062 215.002 233.355 215.268 233.603 215.574Z" fill="#FBBEBE"/>
<path opacity="0.1" d="M228.955 567.307C229.398 569.475 229.898 571.624 230.426 573.774L230.369 573.906C226.062 572.02 221.65 570.05 216.946 569.636C212.582 569.258 207.841 570.437 204.871 573.604C204.83 572.913 204.739 572.227 204.598 571.549C204.312 570.773 204.346 569.915 204.692 569.164C206.031 566.723 209.264 566.233 211.752 566.044C217.518 565.61 223.315 566.036 228.955 567.307Z" fill="black"/>
<path opacity="0.1" d="M266.085 251.451C266.528 251.451 266.368 251.451 266.151 251.526C265.935 251.602 265.576 251.602 266.085 251.451Z" fill="black"/>
<path opacity="0.1" d="M286.569 555.091C282.365 557.77 278.415 560.827 274.767 564.225C273.708 565.358 272.445 566.283 271.044 566.949C269.597 567.415 268.069 567.572 266.557 567.411C260.627 567.171 254.716 566.585 248.854 565.658V565.658C248.459 565.484 248.121 565.201 247.881 564.842C247.64 564.483 247.507 564.063 247.497 563.631C247.572 562.434 248.817 561.746 249.91 561.227C259.61 557.032 270.148 555.213 280.612 553.752C281.676 553.574 282.712 553.258 283.694 552.809C284.872 552.338 284.995 553.111 285.579 553.978C285.87 554.382 286.202 554.755 286.569 555.091V555.091Z" fill="black"/>
<path opacity="0.1" d="M250.9 396.465C252.509 396.443 254.094 396.853 255.49 397.652C256.184 398.06 256.758 398.641 257.158 399.339C257.558 400.037 257.77 400.826 257.772 401.63C257.668 403.412 256.301 404.826 255.311 406.343C254.699 407.268 254.211 408.27 253.86 409.322C253.752 409.562 253.725 409.83 253.784 410.086C253.897 410.444 254.284 410.623 254.614 410.783C255.813 411.326 256.837 412.192 257.572 413.284C258.306 414.376 258.721 415.652 258.771 416.967C258.686 420.643 255.095 423.622 255.293 427.336C255.382 428.109 255.515 428.877 255.688 429.636C256.12 432.801 255.68 436.024 254.416 438.958C253.275 441.918 251.72 444.699 250.495 447.631C247.186 455.596 246.47 464.419 246.724 473.082C246.922 478.964 244.839 484.563 242.953 490.162C244.019 478.884 244.302 467.545 243.802 456.227C243.67 453.154 243.283 450.251 243.425 447.169C243.651 442.277 246.385 437.827 247.082 433.029C247.478 430.286 247.214 427.496 247.28 424.725C247.412 419.069 248.949 413.489 249.052 407.814C249.184 403.808 248.817 399.679 250.9 396.465Z" fill="black"/>
<path opacity="0.1" d="M198.348 318.227C197.274 318.915 195.68 318.688 194.351 318.387C189.11 317.218 183.323 316.379 178.543 318.622C178.536 317.777 178.743 316.943 179.147 316.2C179.835 315.05 181.305 314.814 182.512 314.494C186.562 313.447 190.765 313.128 194.926 313.551C195.292 313.534 195.653 313.635 195.956 313.841C196.259 314.047 196.486 314.345 196.604 314.692C197.236 315.813 197.783 317.02 198.348 318.227Z" fill="black"/>
<path opacity="0.1" d="M240.06 168.848L236.289 161.731C236.528 161.446 236.79 161.182 237.071 160.939C237.616 160.604 238.254 160.452 238.891 160.506L240.06 168.848Z" fill="black"/>
<path opacity="0.1" d="M250.457 160.176L246.187 166.491L243.755 159.563C244.792 159.117 245.915 158.905 247.044 158.941C248.243 159.16 249.396 159.577 250.457 160.176V160.176Z" fill="black"/>
<path opacity="0.1" d="M271.204 196.816C271.074 197 270.922 197.168 270.752 197.315C270.419 197.589 270.047 197.811 269.649 197.975C266.906 199.163 267.019 195.289 265.586 193.96C264.667 193.282 263.54 192.948 262.4 193.017C259.641 192.879 256.879 192.756 254.114 192.649C249.505 192.48 244.905 192.395 240.305 192.498C238.099 192.536 235.899 192.627 233.706 192.772C231.161 192.942 228.428 193.271 226.26 194.478C225.517 194.886 224.846 195.411 224.271 196.033C223.752 196.599 223.205 197.315 222.489 197.447C223.006 194.363 224.364 191.482 226.415 189.122C228.466 186.761 231.13 185.013 234.112 184.071C238.939 180.476 244.969 178.885 250.942 179.632C256.914 180.378 262.367 183.404 266.161 188.078C267.832 189.482 269.166 191.244 270.064 193.234C270.568 194.384 270.951 195.585 271.204 196.816V196.816Z" fill="black"/>
<path d="M655.429 455.426C655.429 455.426 633.56 484.205 615.415 484.44C597.269 484.676 586.617 496.563 595.233 503.991C603.849 511.419 697.735 499.749 697.735 499.749C697.735 499.749 698.621 464.381 690.486 459.216C682.351 454.05 655.429 455.426 655.429 455.426Z" fill="#444176"/>
<path d="M559.517 533.024C559.517 533.024 558.753 459.301 631.703 429.334L648.642 397.106L656.768 377.311C659.71 370.141 664.339 363.787 670.262 358.789C676.184 353.79 683.225 350.294 690.787 348.598L703.928 345.648L707.99 328.53C710.155 319.379 714.951 311.063 721.787 304.607C728.623 298.152 737.2 293.838 746.459 292.201C754.45 290.717 762.558 289.96 770.685 289.938C774.28 289.992 777.801 290.976 780.905 292.793C784.008 294.609 786.589 297.198 788.397 300.307V300.307C788.397 300.307 857.51 299.544 860.574 337.173C860.574 337.173 867.493 371.721 877.475 377.867C877.475 377.867 894.367 374.03 911.259 398.605L929.688 461.572C929.688 461.572 978.063 506.875 963.471 548.294C963.471 548.294 943.507 576.705 842.145 557.504C842.145 557.504 733.875 590.496 676.243 545.25C676.233 545.306 580.255 563.735 559.517 533.024Z" fill="#A8A8A8"/>
<path opacity="0.1" d="M607.893 521.505C607.893 521.505 623.258 500.003 622.485 484.638C621.712 469.273 626.105 431.851 626.105 431.851" stroke="black" stroke-miterlimit="10"/>
<path opacity="0.1" d="M663.951 463.91C663.951 463.91 679.306 435.499 677.77 420.144C677.77 420.144 693.898 390.922 706.181 393.26" stroke="black" stroke-miterlimit="10"/>
<path opacity="0.1" d="M748.42 383.278C748.42 383.278 790.65 367.922 792.959 355.64" stroke="black" stroke-miterlimit="10"/>
<path opacity="0.1" d="M763.775 418.607C763.775 418.607 808.315 398.642 808.315 393.26H830.57C830.57 393.26 862.827 435.499 858.99 453.927" stroke="black" stroke-miterlimit="10"/>
<path opacity="0.1" d="M815.997 449.318C815.997 449.318 772.994 446.245 757.629 458.537C742.265 470.829 714.627 476.965 714.627 476.965C714.627 476.965 698.498 511.522 692.352 517.659C686.206 523.795 676.224 545.306 676.224 545.306" stroke="black" stroke-miterlimit="10"/>
<path opacity="0.1" d="M786.267 296.819C786.267 296.819 783.712 357.836 770.657 373.634" stroke="black" stroke-miterlimit="10"/>
<g opacity="0.05">
<path opacity="0.05" d="M928.104 460.837L909.676 397.869C892.784 373.295 875.892 377.131 875.892 377.131C865.91 370.985 859 336.429 859 336.429C855.927 298.799 786.813 299.572 786.813 299.572C785.003 296.457 782.416 293.865 779.305 292.048C776.194 290.231 772.666 289.251 769.064 289.203C765.802 289.203 762.465 289.307 759.128 289.58C761.014 289.768 762.82 290.036 764.549 290.381L769.921 299.6C769.921 299.6 839.026 298.827 842.099 336.457C842.099 336.457 849.018 371.014 859 377.16C859 377.16 875.892 373.314 892.784 397.898L911.212 460.865C911.212 460.865 959.588 506.168 944.996 547.587C944.996 547.587 935.146 561.604 894.17 563.301C949.417 565.328 961.888 547.587 961.888 547.587C976.48 506.14 928.104 460.837 928.104 460.837Z" fill="black"/>
<path opacity="0.05" d="M657.805 544.533C641.55 547.458 625.112 549.257 608.609 549.916C627.848 550.651 647.86 548.568 660.755 546.796C659.756 546.032 658.776 545.297 657.805 544.533Z" fill="black"/>
<path opacity="0.05" d="M823.67 556.825C800.03 563.455 775.696 567.302 751.163 568.287C786.559 569.569 820.088 562.189 833.907 558.644C830.57 558.088 827.186 557.457 823.67 556.825Z" fill="black"/>
</g>
<path d="M210.065 676.596C210.065 676.596 231.19 675.945 237.552 671.411C243.915 666.877 270.035 661.466 271.619 668.734C273.203 676.002 303.357 704.884 279.509 705.082C255.66 705.28 224.11 701.368 217.757 697.494C211.404 693.62 210.065 676.596 210.065 676.596Z" fill="#A8A8A8"/>
<path opacity="0.2" d="M279.942 702.546C256.094 702.744 224.535 698.832 218.181 695.005C213.346 692.055 211.413 681.478 210.772 676.605H210.065C210.065 676.605 211.404 693.638 217.757 697.503C224.11 701.368 255.67 705.28 279.509 705.091C286.399 705.035 288.775 702.584 288.643 698.955C287.691 701.142 285.061 702.508 279.942 702.546Z" fill="black"/>
<path d="M725.062 623.62C725.062 623.62 700.186 618.643 693.559 612.007C686.932 605.371 657.079 593.776 653.761 602.062C650.443 610.348 608.996 638.542 637.18 643.538C665.365 648.534 703.504 650.136 711.799 646.856C720.094 643.575 725.062 623.62 725.062 623.62Z" fill="#A8A8A8"/>
<path opacity="0.2" d="M637.18 640.408C665.374 645.376 703.504 647.007 711.799 643.717C718.105 641.191 722.498 629.059 724.232 623.413L725.061 623.592C725.061 623.592 720.084 643.481 711.799 646.799C703.513 650.117 665.374 648.458 637.18 643.481C629.045 642.048 626.717 638.674 627.593 634.413C628.291 637.222 631.128 639.362 637.18 640.408Z" fill="black"/>
<path opacity="0.1" d="M486.869 81.928H480.949C482.049 81.928 483.104 81.491 483.882 80.7132C484.66 79.9353 485.097 78.8804 485.097 77.7804C485.097 76.6804 484.66 75.6254 483.882 74.8476C483.104 74.0698 482.049 73.6328 480.949 73.6328H432.988C431.888 73.6328 430.833 74.0698 430.055 74.8476C429.277 75.6254 428.84 76.6804 428.84 77.7804C428.84 78.8804 429.277 79.9353 430.055 80.7132C430.833 81.491 431.888 81.928 432.988 81.928H438.908C437.843 81.9788 436.839 82.4374 436.103 83.2088C435.368 83.9802 434.958 85.005 434.958 86.0708C434.958 87.1366 435.368 88.1615 436.103 88.9329C436.839 89.7042 437.843 90.1629 438.908 90.2137H430.622C429.522 90.2137 428.467 90.6507 427.689 91.4285C426.911 92.2063 426.474 93.2613 426.474 94.3613C426.474 95.4613 426.911 96.5162 427.689 97.294C428.467 98.0719 429.522 98.5088 430.622 98.5088H478.583C479.683 98.5088 480.738 98.0719 481.516 97.294C482.294 96.5162 482.731 95.4613 482.731 94.3613C482.731 93.2613 482.294 92.2063 481.516 91.4285C480.738 90.6507 479.683 90.2137 478.583 90.2137H486.869C487.429 90.2404 487.99 90.1531 488.516 89.957C489.041 89.7608 489.522 89.46 489.928 89.0727C490.335 88.6853 490.658 88.2196 490.879 87.7036C491.1 87.1876 491.214 86.6321 491.214 86.0708C491.214 85.5095 491.1 84.954 490.879 84.4381C490.658 83.9221 490.335 83.4563 489.928 83.069C489.522 82.6816 489.041 82.3808 488.516 82.1847C487.99 81.9885 487.429 81.9012 486.869 81.928V81.928Z" fill="#20D5FE"/>
<path opacity="0.1" d="M673.151 227.857H667.231C668.296 227.806 669.3 227.347 670.035 226.576C670.771 225.804 671.181 224.78 671.181 223.714C671.181 222.648 670.771 221.623 670.035 220.852C669.3 220.08 668.296 219.622 667.231 219.571H619.223C618.662 219.544 618.102 219.631 617.576 219.828C617.05 220.024 616.57 220.325 616.163 220.712C615.757 221.099 615.434 221.565 615.213 222.081C614.992 222.597 614.878 223.152 614.878 223.714C614.878 224.275 614.992 224.831 615.213 225.347C615.434 225.863 615.757 226.328 616.163 226.716C616.57 227.103 617.05 227.404 617.576 227.6C618.102 227.796 618.662 227.883 619.223 227.857H625.143C624.078 227.907 623.074 228.366 622.339 229.137C621.603 229.909 621.193 230.934 621.193 231.999C621.193 233.065 621.603 234.09 622.339 234.861C623.074 235.633 624.078 236.092 625.143 236.142H616.857C615.757 236.142 614.702 236.579 613.924 237.357C613.147 238.135 612.71 239.19 612.71 240.29C612.71 241.39 613.147 242.445 613.924 243.223C614.702 244 615.757 244.437 616.857 244.437H664.809C665.909 244.437 666.964 244 667.742 243.223C668.519 242.445 668.956 241.39 668.956 240.29C668.956 239.19 668.519 238.135 667.742 237.357C666.964 236.579 665.909 236.142 664.809 236.142H673.151C673.712 236.169 674.272 236.082 674.798 235.886C675.324 235.689 675.804 235.389 676.211 235.001C676.617 234.614 676.94 234.148 677.161 233.632C677.382 233.116 677.496 232.561 677.496 231.999C677.496 231.438 677.382 230.883 677.161 230.367C676.94 229.851 676.617 229.385 676.211 228.998C675.804 228.61 675.324 228.309 674.798 228.113C674.272 227.917 673.712 227.83 673.151 227.857V227.857Z" fill="#00B0FF"/>
<path opacity="0.1" d="M397.121 200.86H391.201C391.762 200.887 392.322 200.799 392.848 200.603C393.374 200.407 393.855 200.106 394.261 199.719C394.667 199.331 394.991 198.866 395.211 198.35C395.432 197.834 395.546 197.278 395.546 196.717C395.546 196.156 395.432 195.6 395.211 195.084C394.991 194.568 394.667 194.102 394.261 193.715C393.855 193.328 393.374 193.027 392.848 192.831C392.322 192.635 391.762 192.547 391.201 192.574H343.231C342.67 192.547 342.11 192.635 341.584 192.831C341.058 193.027 340.577 193.328 340.171 193.715C339.765 194.102 339.441 194.568 339.22 195.084C338.999 195.6 338.885 196.156 338.885 196.717C338.885 197.278 338.999 197.834 339.22 198.35C339.441 198.866 339.765 199.331 340.171 199.719C340.577 200.106 341.058 200.407 341.584 200.603C342.11 200.799 342.67 200.887 343.231 200.86H349.15C348.59 200.833 348.029 200.92 347.504 201.116C346.978 201.313 346.497 201.613 346.091 202.001C345.684 202.388 345.361 202.854 345.14 203.37C344.919 203.886 344.805 204.441 344.805 205.003C344.805 205.564 344.919 206.119 345.14 206.635C345.361 207.151 345.684 207.617 346.091 208.004C346.497 208.392 346.978 208.693 347.504 208.889C348.029 209.085 348.59 209.172 349.15 209.145H340.855C339.755 209.145 338.7 209.582 337.922 210.36C337.145 211.138 336.708 212.193 336.708 213.293C336.708 214.393 337.145 215.448 337.922 216.226C338.7 217.004 339.755 217.441 340.855 217.441H388.816C389.916 217.441 390.971 217.004 391.749 216.226C392.527 215.448 392.964 214.393 392.964 213.293C392.964 212.193 392.527 211.138 391.749 210.36C390.971 209.582 389.916 209.145 388.816 209.145H397.102C397.663 209.172 398.223 209.085 398.749 208.889C399.275 208.693 399.755 208.392 400.162 208.004C400.568 207.617 400.891 207.151 401.112 206.635C401.333 206.119 401.447 205.564 401.447 205.003C401.447 204.441 401.333 203.886 401.112 203.37C400.891 202.854 400.568 202.388 400.162 202.001C399.755 201.613 399.275 201.313 398.749 201.116C398.223 200.92 397.663 200.833 397.102 200.86H397.121Z" fill="#20D5FE"/>
</svg>
